<svg width="26" height="38" viewBox="0 0 26 38" fill="none" xmlns="http://www.w3.org/2000/svg">
<path d="M13.0001 0.582283C9.63843 0.592127 6.41783 1.93086 4.04063 4.30815C1.66335 6.68375 0.324596 9.90591 0.316406 13.2676C0.316406 20.017 11.837 35.7997 12.362 36.4839L13.0593 37.4158L13.6975 36.4249C14.1634 35.7998 25.6839 20.0172 25.6839 13.2673C25.6757 9.90569 24.3369 6.68341 21.9596 4.30789C19.5824 1.93061 16.3619 0.591859 13.0002 0.582031L13.0001 0.582283ZM13.0591 18.7389C10.8509 18.7389 8.85913 17.4083 8.01409 15.3691C7.16918 13.3281 7.63675 10.9805 9.19862 9.4185C10.7588 7.8566 13.1082 7.38905 15.1475 8.23561C17.1884 9.08052 18.519 11.0706 18.519 13.279C18.519 14.7276 17.9431 16.1156 16.9194 17.141C15.8956 18.1647 14.506 18.739 13.059 18.739L13.0591 18.7389Z" fill="#1A1A1A"/>
</svg>